<svg width="256" height="256">

	<filter id="blr">
		<feGaussianBlur stdDeviation="2"/>
	</filter>

  <g transform="translate(1,5) scale([scale])">

  <path
     fill="#ffffff" stroke="none" filter="url(#blr)"
     d="m 35.465931,10.598428 c -0.900909,-0.0078 -1.522724,0.317088 -2.254796,0.667294 -5.778902,2.938451 -13.818893,10.064976 -15.174611,17.338657 -0.267905,2.405005 1.856564,4.146752 4.146752,4.146752 2.007982,-0.108612 2.309023,-0.671613 3.76568,-2.744808 2.518985,-4.783278 6.239664,-9.075697 11.243618,-11.496693 1.472679,-0.674483 2.417823,-2.144699 2.420029,-3.764473 0,-2.29019 -1.856567,-4.146754 -4.146763,-4.146752 z" />

  <path
     fill="[color]" stroke="none"
     d="m 52.690667,16.617049 a 4.3650018,4.3650018 0 0 0 -4.367049,4.363807 4.3650018,4.3650018 0 0 0 4.367049,4.367047 4.3650018,4.3650018 0 0 0 4.363807,-4.367047 4.3650018,4.3650018 0 0 0 -4.363807,-4.363807 z M 33.929855,28.691224 a 4.3650018,4.3650018 0 0 0 -4.367049,4.363807 4.3650018,4.3650018 0 0 0 4.367049,4.367048 4.3650018,4.3650018 0 0 0 4.363807,-4.367048 4.3650018,4.3650018 0 0 0 -4.363807,-4.363807 z m 19.965961,6.592686 a 4.3650018,4.3650018 0 0 0 -4.363808,4.367048 4.3650018,4.3650018 0 0 0 4.363808,4.363809 4.3650018,4.3650018 0 0 0 4.367048,-4.363809 4.3650018,4.3650018 0 0 0 -4.367048,-4.367048 z M 21.20451,39.650958 a 2.6004265,2.6004265 0 0 0 -2.598199,2.5982 2.6004265,2.6004265 0 0 0 2.598199,2.601438 2.6004265,2.6004265 0 0 0 2.601438,-2.601438 2.6004265,2.6004265 0 0 0 -2.601438,-2.5982 z m 55.815926,1.20515 a 5.386598,5.8509597 0 0 0 -5.384297,5.850808 5.386598,5.8509597 0 0 0 0.0033,0.05832 l -62.1850788,0 C 12.026345,72.494419 38.358206,83.709001 52.020059,83.85598 48.567183,90.12832 48.285987,91.190525 43.273004,97.731399 72.925173,92.387097 88.188272,74.750992 90.351596,46.765229 l -7.946862,0 a 5.386598,5.8509597 0 0 0 0.0033,-0.05832 5.386598,5.8509597 0 0 0 -5.387538,-5.850807 z" />

  <path
     fill="#000000" stroke="none"
     d="M 49.881889,0.18230546 C 26.375251,0.18228556 7.3193507,19.238186 7.3193706,42.744824 7.6126753,72.913175 33.949494,85.048163 49.007112,85.21016 45.394155,91.773297 44.12643,93.27275 38.881036,100.11687 71.049765,99.143013 91.997496,74.138896 92.444408,42.744824 92.444428,19.238186 73.388528,0.18228556 49.881889,0.18230546 Z m 0,3.76334304 c 20.402515,-3.898e-4 37.499352,15.4247455 38.799176,38.7991755 0.365591,16.630254 -9.107814,45.637535 -42.027793,53.037805 3.483539,-4.598004 5.829903,-9.236112 8.328026,-14.631657 0,0 0.0012,0.393124 -5.099409,0.393026 C 29.479376,81.544386 10.896583,63.333082 10.896971,42.930569 11.082326,20.856353 29.479376,3.9452604 49.881889,3.9456485 Z" />
  </g>
</svg>
