<svg width="32" height="32">
<path fill="#969696" stroke="none" transform="translate(16 16) scale(0.32) translate(-50 -50)" d="M 46.23953,2.4322025 C 32.194804,4.3030293 21.335893,16.29376 21.335893,30.847587 c 0,0.896646 0.0699,1.775752 0.152134,2.650847 -0.800383,0.366652 -1.602933,0.74942 -2.380886,1.198569 C 6.5065916,41.971935 1.5557192,57.36065 6.9507886,70.456856 l 0.08442,-0.05052 c -3.0810565,-8.918305 0.45872,-19.049285 8.9317144,-23.941172 9.327588,-5.385278 21.150223,-2.381796 26.912549,6.58469 l 1.840512,-1.080741 c -0.231025,-0.622198 -0.40539,-1.272484 -0.40539,-1.97506 7e-6,-2.827584 2.087092,-5.063227 4.778475,-5.538245 l 0,-2.211604 C 38.453807,41.730636 29.963357,33.003082 29.963357,22.236874 c 0,-9.789492 7.007228,-17.9190377 16.276173,-19.7035101 l 0,-0.1011177 z m 7.648291,0 0,0.1011295 c 9.263984,1.7908793 16.276173,9.919737 16.276173,19.703511 0,10.771926 -8.514979,19.502297 -19.163136,20.007325 l 0,2.194899 c 2.701167,0.466949 4.794743,2.720429 4.794743,5.55495 0,0.702575 -0.173921,1.352862 -0.404945,1.97506 l 1.840067,1.08074 c 5.762304,-8.965543 17.585397,-11.953278 26.912993,-6.567984 8.477938,4.894734 12.003636,15.022238 8.914564,23.941611 l 0.101565,0.05052 c 5.402177,-13.098502 0.44763,-28.50008 -12.156349,-35.776993 -0.779583,-0.450091 -1.578733,-0.831649 -2.380877,-1.198569 0.08222,-0.875096 0.152124,-1.754201 0.152124,-2.650847 9e-6,-14.549869 -10.84774,-26.5395587 -24.886923,-28.4153848 z m -3.83272,21.7124155 c -6.217639,0 -11.848035,2.296245 -16.309598,5.959904 0.989233,2.036213 2.323476,3.849576 3.967704,5.369408 3.341241,-2.842958 7.615194,-4.626343 12.341894,-4.626343 4.7267,0 9.001097,1.783385 12.342338,4.626343 1.644283,-1.517857 2.993699,-3.31943 3.984409,-5.352259 C 61.920462,26.446405 56.28368,24.144618 50.055101,24.144618 Z M 74.186214,45.72469 c -1.85652,-0.02458 -3.729728,0.337967 -5.33907,0.824851 0.205486,1.123123 0.354389,2.262346 0.354389,3.44447 -8e-6,8.309684 -5.342331,15.318115 -12.747285,17.964123 0.496247,2.19777 1.405264,4.278646 2.684701,6.162596 9.770382,-3.688572 16.748404,-13.067957 16.748397,-24.126719 0,-1.435886 -0.196789,-2.815083 -0.422095,-4.187536 -0.423166,-0.05015 -0.850604,-0.07609 -1.279037,-0.08178 z m -47.910479,0.02419 c -0.545251,-0.0038 -1.092592,0.01622 -1.647496,0.05757 -0.225605,1.372451 -0.422095,2.751648 -0.422095,4.187535 0,11.053112 6.981773,20.434144 16.748841,24.126718 1.28374,-1.882816 2.183906,-3.965766 2.684264,-6.162595 -7.397054,-2.650231 -12.730136,-9.6601 -12.730136,-17.964127 0,-1.182125 0.148902,-2.321347 0.35438,-3.44447 -1.736271,-0.55433 -3.35202,-0.788211 -4.987758,-0.800667 z m 19.423429,7.858009 -1.873928,1.080741 c 4.890141,9.474232 1.564119,21.204945 -7.766561,26.592023 -8.477949,4.894738 -19.010874,2.880084 -25.190748,-4.254814 l -0.101118,0.05052 c 8.642546,11.227663 24.456012,14.638518 37.059982,7.361604 0.780288,-0.450497 1.508232,-0.957336 2.228315,-1.468978 0.721692,0.511888 1.447425,1.017884 2.228753,1.468978 12.600549,7.274931 28.399171,3.875913 37.043282,-7.344455 l -0.08442,-0.05098 C 83.059776,84.168932 72.508248,86.188218 64.03526,81.296336 54.709118,75.9119 51.404786,64.177091 56.285411,54.704321 l -1.891078,-1.097454 c -1.053027,1.264377 -2.565272,2.12763 -4.339232,2.12763 -1.777367,-9e-6 -3.30294,-0.859064 -4.355937,-2.12763 z" />
</svg>